<?xml version="1.0" standalone="no"?>
<!DOCTYPE svg PUBLIC "-//W3C//DTD SVG 20010904//EN"
 "http://www.w3.org/TR/2001/REC-SVG-20010904/DTD/svg10.dtd">
<svg version="1.0" xmlns="http://www.w3.org/2000/svg"
 width="484.000000pt" height="500.000000pt" viewBox="0 0 484.000000 500.000000"
 preserveAspectRatio="xMidYMid meet">

<g transform="translate(0.000000,500.000000) scale(0.100000,-0.100000)"
fill="#000000" stroke="none">
<path d="M831 4310 c-183 -67 -326 -232 -362 -418 -16 -84 -7 -221 20 -297 27
-76 100 -184 160 -236 64 -56 172 -107 266 -126 322 -66 645 188 657 517 l3
65 -185 0 -185 0 -3 -142 -3 -143 -39 0 -40 0 0 145 0 145 -40 0 c-39 0 -40 1
-40 35 l0 35 264 0 c259 0 264 0 259 20 -5 19 -14 20 -284 20 l-279 0 0 -75 0
-75 46 0 45 0 -3 -37 c-3 -37 -4 -38 -45 -41 l-43 -3 0 -85 0 -84 -40 0 -40 0
0 235 0 235 306 0 c275 0 306 2 300 16 -3 9 -6 18 -6 20 0 2 -144 4 -320 4
l-320 0 0 -255 0 -255 -40 0 -40 0 0 255 0 255 -40 0 c-40 0 -40 0 -40 40 l0
40 372 2 373 3 -59 58 c-39 38 -87 71 -144 100 l-85 42 -146 3 c-125 2 -154
-1 -200 -18z m16 -857 c-2 -41 -5 -48 -24 -51 -21 -3 -23 0 -23 47 0 48 2 51
25 51 23 0 24 -3 22 -47z m58 -3 c0 -38 -3 -45 -20 -45 -15 0 -21 8 -23 33 -4
45 4 64 25 60 14 -3 18 -13 18 -48z m35 -30 c5 0 11 19 13 43 4 38 4 37 3 -8
-1 -37 -5 -50 -16 -50 -11 0 -15 13 -16 50 -1 45 -1 46 3 8 2 -24 8 -43 13
-43z m100 30 c0 -27 -4 -50 -10 -50 -5 0 -10 20 -10 45 0 60 -20 58 -22 -2
l-1 -48 -4 45 c-3 24 -10 48 -16 52 -7 4 5 8 26 8 l37 0 0 -50z m55 31 c3 -10
4 -33 3 -50 -2 -26 -6 -31 -23 -29 -33 5 -35 98 -1 98 8 0 17 -8 21 -19z m35
-61 c5 0 11 19 13 43 4 38 4 37 3 -8 -1 -37 -5 -50 -16 -50 -11 0 -15 13 -16
50 -1 45 -1 46 3 8 2 -24 8 -43 13 -43z m63 73 c-7 -2 -13 -11 -13 -19 0 -8 6
-14 13 -15 10 0 10 -2 0 -6 -15 -6 -17 -33 -3 -33 6 0 10 -4 10 -10 0 -5 -9
-10 -20 -10 -17 0 -20 7 -20 50 0 45 2 50 23 49 12 0 16 -3 10 -6z"/>
<path d="M820 3474 c0 -8 5 -12 10 -9 6 4 8 11 5 16 -9 14 -15 11 -15 -7z"/>
<path d="M820 3436 c0 -9 5 -16 10 -16 6 0 10 4 10 9 0 6 -4 13 -10 16 -5 3
-10 -1 -10 -9z"/>
<path d="M883 3450 c0 -25 2 -35 4 -22 2 12 2 32 0 45 -2 12 -4 2 -4 -23z"/>
<path d="M1067 3483 c-11 -10 -8 -61 3 -68 6 -4 10 10 10 34 0 42 -2 46 -13
34z"/>
</g>
</svg>
